<?xml version="1.0" standalone="no"?>
<!DOCTYPE svg PUBLIC "-//W3C//DTD SVG 20010904//EN"
 "http://www.w3.org/TR/2001/REC-SVG-20010904/DTD/svg10.dtd">
<svg version="1.0" xmlns="http://www.w3.org/2000/svg"
 width="512.000000pt" height="512.000000pt" viewBox="0 0 512.000000 512.000000"
 preserveAspectRatio="xMidYMid meet">
<metadata>
Created by potrace 1.14, written by Peter Selinger 2001-2017
</metadata>
<g transform="translate(0.000000,512.000000) scale(0.100000,-0.100000)"
fill="#000000" stroke="none">
<path d="M2437 5003 c-3 -5 -44 -9 -91 -9 -47 1 -86 -3 -86 -8 0 -4 -6 -6 -14
-3 -8 3 -17 3 -20 -1 -4 -3 -19 -7 -34 -8 -22 -2 -111 -18 -157 -29 -39 -9
-72 -18 -85 -22 -8 -3 -24 -8 -35 -10 -11 -2 -27 -6 -35 -10 -24 -10 -67 -21
-88 -22 -7 -1 -10 -6 -6 -12 4 -8 0 -9 -15 -4 -11 3 -21 2 -21 -3 0 -5 -16
-13 -35 -16 -19 -4 -35 -11 -35 -17 0 -6 -4 -8 -10 -4 -5 3 -17 1 -27 -4 -10
-5 -61 -31 -113 -56 -52 -25 -99 -50 -106 -55 -6 -6 -14 -7 -17 -3 -4 3 -9 -2
-13 -11 -3 -9 -9 -14 -14 -11 -4 2 -16 -4 -27 -15 -12 -10 -23 -17 -26 -14 -2
2 -10 -2 -17 -11 -7 -8 -19 -15 -27 -15 -7 0 -16 -7 -19 -15 -4 -8 -10 -12
-15 -9 -5 3 -9 0 -9 -5 0 -6 -4 -11 -10 -11 -12 0 -104 -69 -108 -81 -2 -5 -8
-7 -12 -4 -5 3 -14 -4 -20 -16 -7 -11 -14 -19 -16 -16 -5 5 -69 -50 -126 -106
-15 -15 -28 -26 -28 -23 0 3 -13 -7 -28 -22 -15 -15 -26 -30 -24 -34 2 -5 -4
-8 -12 -8 -8 0 -18 -9 -21 -20 -4 -11 -11 -18 -16 -15 -5 4 -9 2 -9 -4 0 -5
-13 -22 -28 -38 -15 -15 -50 -55 -77 -88 -26 -33 -55 -65 -64 -72 -9 -7 -13
-13 -9 -13 5 0 -1 -10 -12 -22 -10 -13 -20 -27 -21 -33 -1 -5 -9 -15 -19 -22
-9 -7 -23 -26 -30 -43 -7 -16 -17 -30 -22 -30 -5 0 -7 -4 -3 -9 3 -5 -5 -17
-17 -25 -12 -9 -17 -16 -10 -16 8 0 5 -8 -8 -22 -11 -12 -20 -28 -20 -35 0 -7
-4 -13 -9 -13 -8 0 -23 -41 -18 -48 1 -2 -6 -8 -16 -13 -9 -6 -15 -14 -12 -20
4 -5 1 -9 -5 -9 -7 0 -10 -6 -7 -14 3 -8 -1 -17 -10 -20 -8 -4 -13 -13 -9 -21
3 -8 -1 -18 -9 -22 -7 -5 -14 -10 -13 -13 0 -24 -16 -59 -26 -53 -6 3 -8 3 -4
-2 4 -4 -2 -30 -12 -58 -11 -27 -17 -54 -14 -58 2 -4 -3 -12 -12 -17 -9 -5
-15 -11 -14 -13 1 -2 -4 -24 -11 -49 -7 -25 -13 -48 -15 -52 -1 -5 -3 -11 -4
-15 -1 -5 -2 -11 -1 -15 0 -5 -3 -8 -8 -8 -4 0 -6 -11 -3 -25 2 -14 0 -25 -6
-25 -6 0 -9 -11 -7 -25 1 -14 -2 -25 -6 -25 -5 0 -9 -13 -9 -28 0 -15 -6 -34
-12 -41 -11 -11 -10 -12 2 -6 12 7 13 6 4 -6 -13 -17 -34 -155 -38 -246 0 -18
-3 -33 -6 -33 -3 0 -6 -26 -7 -58 0 -31 -3 -73 -5 -92 -3 -19 0 -41 5 -47 6
-9 5 -13 -2 -13 -7 0 -9 -5 -6 -10 5 -8 60 -8 60 0 0 1 11 4 60 14 6 1 16 5
23 9 6 5 16 6 21 2 5 -3 12 -1 16 5 4 6 10 8 15 5 5 -3 11 -1 14 4 3 5 19 7
36 6 17 -1 30 2 30 9 0 6 13 11 29 12 50 2 57 17 66 134 2 19 4 35 5 35 1 0 4
18 6 40 4 38 10 74 14 85 3 5 6 30 8 63 1 10 5 16 10 14 4 -3 8 9 8 26 2 54 8
77 19 77 5 0 3 5 -5 10 -10 6 -11 10 -2 10 6 0 12 9 12 20 0 10 4 29 9 42 17
42 24 63 28 82 2 11 8 25 13 31 5 7 7 15 3 18 -3 4 -1 7 5 7 6 0 9 9 7 21 -3
15 0 19 10 16 10 -4 12 1 9 19 -3 14 0 24 7 24 7 0 9 3 6 7 -4 3 1 15 10 26
10 10 17 21 15 23 -4 6 41 99 50 102 5 2 6 8 2 13 -3 5 0 9 5 9 6 0 11 6 11
14 0 7 7 19 15 26 8 7 13 16 10 20 -3 5 -2 10 3 12 4 1 19 21 32 43 35 57 116
162 187 243 18 20 33 41 33 45 0 5 4 6 9 2 5 -3 12 4 16 15 3 11 13 20 21 20
8 0 13 4 10 8 -3 5 4 16 15 25 10 9 19 14 19 11 0 -4 9 5 20 19 25 32 203 177
218 177 6 0 19 11 30 25 11 14 27 25 36 25 9 0 16 3 16 8 0 9 62 46 73 44 4
-1 7 3 7 8 0 6 5 10 11 10 6 0 23 9 39 20 15 11 30 17 34 13 3 -3 6 -1 6 5 0
7 9 12 19 12 11 0 21 4 23 8 4 10 140 68 150 64 5 -1 8 2 8 8 0 6 3 9 8 8 4
-1 23 4 42 11 19 8 40 15 45 16 103 26 184 49 199 57 13 7 16 6 11 -2 -6 -9
-2 -9 15 0 12 6 24 9 27 7 2 -3 20 -1 40 5 30 8 92 17 143 20 8 0 21 5 28 11
8 6 12 6 12 0 0 -6 12 -8 28 -6 15 2 34 4 42 4 75 -2 103 -1 107 3 3 2 18 0
34 -4 16 -5 29 -5 29 0 0 5 13 5 30 0 18 -5 32 -5 36 1 3 5 11 6 17 2 11 -6
79 -15 140 -16 15 -1 27 -4 27 -7 0 -3 10 -6 23 -7 86 -5 105 -8 101 -15 -3
-5 10 -8 29 -8 18 0 37 -3 41 -7 3 -4 14 -8 24 -9 17 -3 53 -11 62 -14 3 -1 8
-2 13 -1 4 0 7 -3 7 -8 0 -4 11 -7 25 -6 14 2 25 -1 25 -6 0 -5 12 -9 26 -9
16 0 23 -4 18 -12 -4 -6 -3 -8 3 -5 5 3 21 0 36 -8 15 -8 27 -12 27 -9 0 2 18
-5 40 -16 22 -11 40 -18 40 -14 0 3 7 -2 16 -10 8 -9 19 -14 24 -11 5 3 10 2
12 -2 1 -5 34 -24 73 -43 38 -19 78 -43 89 -52 11 -10 28 -20 38 -24 10 -3 18
-10 18 -15 0 -5 3 -8 8 -7 8 3 64 -32 74 -47 5 -6 8 -6 8 0 0 6 4 4 9 -4 13
-20 42 -23 61 -7 8 8 25 17 38 20 12 4 22 11 22 14 0 4 16 16 35 26 19 11 35
23 35 27 0 5 7 6 15 3 8 -4 15 -1 15 5 0 6 16 19 35 28 19 9 35 21 35 25 0 5
4 7 9 4 4 -3 16 3 25 12 15 17 14 20 -3 38 -32 33 -71 64 -81 64 -6 0 -10 4
-10 9 0 5 -16 19 -35 31 -20 12 -42 29 -50 37 -8 8 -15 11 -15 6 0 -4 -4 -3
-8 3 -11 18 -151 100 -164 96 -5 -1 -8 3 -8 8 0 6 -6 10 -14 10 -8 0 -22 7
-30 16 -9 8 -20 12 -26 9 -5 -3 -10 -3 -10 2 0 9 -131 69 -142 66 -5 -2 -8 2
-8 8 0 5 -4 7 -10 4 -5 -3 -10 -1 -10 4 0 6 -11 11 -24 11 -13 0 -26 4 -28 9
-1 6 -14 12 -28 15 -14 3 -62 18 -107 34 -46 16 -83 28 -83 26 0 -1 -12 4 -27
11 -19 10 -29 11 -34 4 -5 -8 -8 -8 -10 0 -3 7 -18 13 -34 15 -17 2 -30 5 -30
6 0 5 -103 23 -137 24 -16 1 -28 5 -28 10 0 5 -6 3 -14 -3 -9 -8 -16 -8 -20
-2 -4 6 -13 8 -21 4 -8 -3 -15 0 -15 7 0 10 -3 10 -14 1 -8 -7 -16 -8 -19 -4
-3 4 -55 8 -116 8 -61 -1 -111 3 -111 8 0 5 -6 5 -13 -2 -10 -8 -17 -7 -27 2
-10 9 -11 9 -6 0 9 -16 -10 -17 -19 -3 -5 8 -11 8 -20 0 -9 -8 -15 -8 -20 0
-4 6 -12 7 -24 0 -12 -6 -22 -5 -28 1 -6 6 -13 7 -16 2z"/>
<path d="M4650 4630 c0 -5 -3 -10 -7 -9 -16 2 -53 -14 -53 -22 0 -5 -7 -9 -15
-9 -8 0 -15 -5 -15 -11 0 -5 -4 -8 -8 -5 -5 3 -26 -7 -47 -21 -21 -14 -34 -19
-30 -12 4 8 -2 4 -14 -8 -12 -13 -28 -23 -36 -23 -7 0 -15 -3 -17 -8 -3 -7
-44 -31 -145 -84 -24 -12 -43 -26 -43 -31 0 -4 -4 -5 -10 -2 -5 3 -10 1 -10
-4 0 -6 -7 -11 -15 -11 -8 0 -15 -3 -15 -7 0 -5 -18 -17 -40 -27 -22 -10 -48
-27 -59 -37 -10 -10 -21 -16 -24 -13 -2 2 -10 -2 -17 -11 -7 -8 -19 -15 -26
-15 -8 0 -14 -4 -14 -10 0 -5 -7 -10 -15 -10 -8 0 -15 -4 -15 -9 0 -5 -13 -14
-30 -21 -16 -7 -30 -16 -30 -21 0 -5 -7 -9 -15 -9 -8 0 -15 -4 -15 -10 0 -5
-6 -10 -13 -10 -8 0 -24 -11 -37 -25 -13 -14 -29 -25 -35 -25 -6 0 -25 -13
-41 -30 -16 -16 -33 -30 -39 -30 -5 0 -22 -10 -37 -23 -68 -55 -84 -67 -97
-67 -8 0 -12 -3 -8 -6 8 -9 -14 -30 -40 -38 -11 -4 -23 -16 -27 -28 -3 -12 -8
-19 -11 -16 -14 14 -360 -327 -349 -344 4 -7 3 -8 -4 -4 -6 4 -16 -4 -23 -16
-6 -13 -24 -35 -40 -49 -15 -15 -26 -29 -23 -31 2 -3 -5 -13 -16 -23 -11 -10
-20 -24 -20 -32 0 -7 -3 -13 -7 -13 -5 0 -21 -24 -37 -53 -17 -28 -36 -58 -43
-66 -8 -7 -12 -18 -10 -25 2 -6 -2 -15 -8 -21 -13 -11 -58 -120 -58 -141 0 -8
-5 -14 -10 -14 -5 0 -7 -11 -5 -25 3 -13 2 -22 -2 -20 -10 6 -17 -14 -15 -42
1 -13 -1 -23 -5 -23 -4 0 -7 -6 -8 -12 0 -7 -2 -30 -4 -50 -3 -21 -1 -38 4
-38 4 0 4 -10 -1 -22 -6 -19 -7 -143 -1 -143 1 0 4 -13 6 -30 3 -16 9 -42 15
-56 5 -14 11 -35 12 -47 1 -12 4 -22 7 -22 3 0 12 -17 19 -37 8 -21 25 -55 38
-75 13 -21 21 -38 18 -38 -3 0 6 -11 20 -25 14 -14 25 -30 25 -34 0 -5 25 -34
55 -66 30 -31 55 -61 55 -66 0 -8 14 -13 32 -10 4 0 5 -5 2 -13 -3 -7 3 -15
13 -18 27 -7 43 1 43 23 0 11 5 17 10 14 6 -3 10 3 10 15 0 12 5 18 10 15 6
-3 10 1 10 9 0 9 5 16 10 16 6 0 10 7 10 15 0 8 5 15 11 15 5 0 8 4 5 8 -3 5
4 18 14 30 11 12 20 24 20 27 0 9 62 99 73 106 5 3 8 10 8 15 -1 5 5 16 13 26
8 9 12 19 9 22 -4 3 -2 6 4 6 6 0 16 13 23 30 7 16 17 27 23 23 5 -3 7 -1 4 4
-4 6 2 22 13 36 11 14 20 30 20 35 0 6 3 12 8 14 8 3 62 84 62 93 0 3 9 16 20
28 11 12 18 27 15 35 -2 7 -1 11 3 9 4 -3 13 1 20 9 7 8 10 14 7 14 -3 0 17
34 45 75 28 41 48 75 46 75 -3 0 6 12 19 26 14 15 22 30 20 34 -3 4 2 11 11
14 8 3 13 10 10 15 -3 5 1 12 10 15 8 3 12 10 9 16 -3 5 -2 10 2 10 5 0 17 16
27 35 11 19 23 35 28 35 5 0 6 5 3 10 -3 6 -2 10 2 10 5 0 17 17 28 38 11 20
25 41 32 45 7 4 13 14 13 21 0 7 9 21 20 31 11 10 17 22 14 26 -3 5 2 9 11 9
9 0 13 5 10 10 -7 12 5 13 21 2 14 -9 12 -48 -3 -63 -6 -6 -9 -18 -6 -25 3 -8
1 -14 -5 -14 -8 0 -18 -21 -21 -45 0 -3 -8 -20 -18 -38 -9 -17 -18 -38 -19
-46 -2 -8 -8 -17 -14 -21 -7 -4 -11 -10 -11 -14 3 -22 -1 -37 -15 -50 -8 -9
-13 -16 -9 -16 3 0 0 -10 -7 -22 -7 -13 -13 -25 -13 -28 -1 -3 -18 -41 -39
-85 -21 -44 -39 -86 -39 -92 0 -7 -4 -13 -9 -13 -6 0 -8 -6 -5 -12 2 -7 -3
-18 -10 -23 -8 -6 -15 -18 -16 -27 -2 -9 -9 -23 -16 -32 -7 -9 -10 -16 -6 -16
3 0 -3 -15 -14 -33 -11 -19 -18 -37 -14 -40 3 -4 -1 -9 -10 -13 -9 -3 -13 -12
-10 -20 3 -8 0 -14 -6 -14 -6 0 -11 -9 -11 -21 0 -13 -4 -18 -12 -13 -6 4 -8
3 -5 -3 4 -6 -5 -35 -20 -64 -15 -30 -26 -57 -25 -61 1 -5 -3 -8 -9 -8 -5 0
-8 -4 -4 -9 3 -5 1 -12 -5 -16 -5 -3 -10 -15 -10 -26 0 -11 -4 -17 -10 -14 -6
4 -10 -5 -10 -19 0 -14 -5 -26 -10 -26 -6 0 -10 -3 -9 -7 2 -15 -13 -53 -22
-53 -4 0 -6 -9 -4 -20 2 -11 0 -18 -6 -15 -9 6 -13 -8 -10 -34 2 -7 -2 -10 -8
-6 -6 3 -11 -2 -11 -12 0 -11 -4 -23 -8 -29 -12 -13 -63 -136 -59 -140 2 -2
16 -5 30 -6 15 -1 27 -5 27 -9 0 -3 14 -6 30 -7 17 0 40 -4 53 -8 21 -7 59
-11 160 -16 26 -2 47 -7 47 -12 0 -5 5 -5 13 0 6 5 28 9 47 9 19 0 38 5 42 10
5 6 8 5 8 -3 0 -8 5 -10 13 -5 6 4 23 8 37 9 14 0 33 4 42 8 9 4 22 5 28 1 5
-3 10 -2 10 3 0 5 6 9 13 10 16 1 36 7 74 22 18 6 34 10 35 8 2 -1 17 7 35 20
17 12 36 22 42 22 6 0 11 5 11 10 0 6 9 10 20 10 11 0 20 4 20 8 0 5 19 23 43
40 71 52 148 135 198 215 19 29 38 55 44 59 5 4 6 8 2 8 -5 0 0 12 11 28 21
30 36 63 34 75 -1 4 2 7 8 7 5 0 10 9 10 20 0 11 5 20 11 20 6 0 9 7 5 15 -3
8 -1 15 4 15 8 0 26 57 22 73 -1 4 2 7 6 7 5 0 9 6 10 13 2 21 7 42 15 54 4 6
8 23 9 37 1 14 6 26 10 26 4 0 7 8 7 18 1 38 5 52 13 52 5 0 6 5 3 10 -4 6 -1
17 5 25 10 12 10 15 0 15 -10 0 -10 3 0 15 7 8 10 26 8 40 -3 13 -1 22 3 19 5
-3 10 6 10 20 1 14 3 31 4 36 1 6 3 19 4 31 0 11 5 18 10 14 6 -3 6 6 1 24 -4
16 -6 32 -2 35 7 8 14 60 16 123 0 29 6 53 11 53 6 0 3 5 -5 10 -8 5 -10 10
-5 10 11 0 15 32 18 130 1 30 5 60 10 67 4 6 3 14 -2 17 -11 7 -9 55 3 75 6 9
5 12 -2 7 -10 -6 -11 30 -2 69 1 6 2 12 0 15 -8 23 -7 66 3 72 9 6 9 8 0 8 -8
0 -11 30 -11 98 0 156 -3 192 -16 185 -6 -4 -5 1 3 10 11 14 11 17 0 17 -11 0
-11 2 1 10 8 5 11 10 5 10 -6 0 -11 30 -11 68 -2 86 -9 157 -19 172 -5 9 -4
11 3 6 9 -5 10 -1 4 16 -5 13 -8 30 -7 38 1 8 -3 21 -8 28 -6 8 -5 12 2 12 7
0 9 5 4 13 -4 6 -9 32 -10 57 0 25 -2 45 -3 45 -1 0 -4 13 -6 30 -5 27 -19 44
-36 45 -5 0 -8 -4 -8 -10z"/>
<path d="M2605 4560 c-2 -3 -38 -6 -79 -5 -42 0 -76 -2 -76 -5 0 -3 -21 -5
-47 -4 -27 1 -52 -1 -58 -5 -5 -3 -17 -6 -25 -7 -8 -2 -33 -5 -55 -9 -22 -3
-55 -7 -73 -9 -18 -2 -40 -10 -49 -17 -14 -12 -16 -12 -8 0 6 11 5 12 -6 5
-14 -9 -29 -12 -64 -17 -11 -1 -23 -6 -26 -10 -3 -4 -19 -9 -35 -10 -16 -1
-32 -6 -35 -10 -3 -5 -12 -9 -20 -10 -8 -2 -20 -6 -27 -11 -7 -4 -16 -5 -19
-2 -4 3 -15 -1 -25 -11 -10 -9 -18 -13 -18 -8 0 4 -6 2 -14 -4 -8 -6 -18 -11
-22 -9 -5 1 -18 -3 -29 -9 -20 -11 -27 -13 -46 -13 -5 0 -7 -6 -3 -12 4 -7 4
-10 -1 -6 -4 4 -24 -1 -45 -12 -21 -11 -41 -16 -45 -12 -5 4 -5 1 -1 -5 4 -8
1 -13 -8 -13 -9 0 -16 -5 -16 -12 0 -6 -3 -8 -6 -5 -4 3 -18 -2 -32 -13 -13
-11 -28 -17 -32 -15 -5 3 -11 -4 -15 -15 -4 -11 -15 -20 -26 -20 -11 0 -22 -7
-25 -15 -4 -8 -11 -15 -18 -15 -10 0 -45 -26 -88 -64 -10 -9 -20 -16 -23 -16
-5 0 -37 -25 -60 -47 -8 -7 -16 -13 -19 -13 -3 0 -26 -20 -53 -45 -26 -25 -51
-45 -56 -45 -4 0 -5 -4 -2 -10 3 -5 0 -10 -8 -10 -8 0 -18 -7 -21 -16 -3 -8
-11 -12 -17 -8 -8 4 -9 3 -5 -4 4 -7 2 -12 -4 -12 -6 0 -9 -4 -5 -9 3 -5 -4
-12 -15 -16 -11 -3 -20 -10 -20 -15 0 -5 -8 -16 -17 -26 -10 -10 -18 -21 -18
-26 0 -5 -6 -13 -14 -17 -7 -5 -11 -13 -7 -19 3 -6 2 -14 -4 -17 -8 -5 -8 -11
-1 -19 6 -7 7 -17 3 -21 -4 -5 -2 -5 4 -2 6 4 19 -9 30 -28 10 -19 22 -35 26
-35 5 0 8 -7 8 -16 0 -8 5 -12 10 -9 6 3 10 3 10 -2 0 -13 57 -73 69 -73 7 0
9 -4 6 -10 -3 -5 -2 -10 3 -10 4 0 18 -9 30 -20 12 -12 22 -19 22 -16 0 3 12
-6 26 -19 15 -14 33 -25 41 -25 8 0 12 -4 9 -8 -2 -4 20 -19 49 -32 30 -14 55
-28 55 -32 0 -5 6 -8 13 -8 8 0 27 -6 43 -14 46 -23 87 -38 114 -42 45 -7 55
-9 65 -16 16 -10 325 -6 325 4 0 4 16 7 35 5 19 -2 36 0 38 6 1 5 14 11 28 12
14 2 40 10 57 19 18 9 34 16 37 16 22 -1 25 1 19 12 -4 7 -3 8 4 4 12 -7 64
17 90 42 7 6 18 12 23 12 8 0 35 20 65 48 8 7 14 10 14 7 0 -12 148 144 167
175 9 16 21 30 26 30 4 0 5 5 2 10 -3 6 -2 10 3 10 6 0 13 11 16 25 4 14 11
23 17 20 5 -4 8 -3 7 2 -1 4 9 31 21 58 13 28 23 56 22 63 -1 6 2 12 7 12 8 0
24 56 22 75 0 3 6 20 13 38 8 17 13 42 12 55 -1 12 1 22 4 22 4 0 6 60 6 134
1 74 -3 132 -8 129 -4 -2 -6 7 -3 20 2 14 2 28 -2 31 -3 4 -7 14 -9 24 -5 35
-10 57 -16 75 -4 9 -9 23 -11 31 -4 14 -74 28 -81 16z"/>
<path d="M4818 3503 c-2 -10 -4 -48 -3 -85 0 -38 -3 -68 -8 -68 -4 0 -5 -4 -2
-10 3 -5 1 -18 -4 -29 -8 -14 -8 -21 2 -24 6 -3 7 -6 2 -6 -6 -1 -10 -21 -9
-46 1 -25 -1 -45 -5 -45 -4 0 -7 -17 -6 -37 0 -21 -2 -42 -6 -48 -6 -10 -11
-36 -24 -150 -4 -27 -11 -55 -16 -61 -4 -6 -7 -20 -4 -32 2 -12 0 -22 -5 -22
-4 0 -7 -8 -6 -17 2 -10 -3 -31 -10 -48 -7 -16 -13 -34 -14 -40 -2 -5 -4 -14
-5 -20 -4 -11 -14 -60 -20 -90 -2 -11 -4 -22 -5 -25 -1 -3 -2 -9 -1 -14 1 -5
-1 -16 -5 -25 -4 -9 -8 -38 -9 -66 -3 -63 -16 -168 -22 -177 -2 -5 2 -8 9 -8
8 0 9 -3 3 -8 -11 -8 -15 -22 -20 -72 -2 -19 -8 -50 -14 -67 -5 -18 -7 -33 -4
-33 3 0 -1 -8 -8 -17 -12 -15 -12 -16 1 -8 12 7 13 6 4 -6 -10 -12 -27 -70
-25 -84 1 -3 -5 -18 -12 -33 -8 -15 -12 -33 -10 -39 3 -7 -1 -13 -7 -13 -7 0
-9 -8 -5 -20 3 -11 2 -20 -3 -20 -6 0 -13 -11 -16 -25 -3 -13 -11 -37 -18 -52
-6 -15 -12 -30 -12 -33 -1 -3 -13 -30 -28 -62 -14 -31 -29 -66 -33 -77 -3 -12
-11 -19 -16 -15 -5 3 -8 2 -7 -3 3 -9 -41 -105 -52 -113 -4 -3 -15 -20 -25
-37 -11 -18 -23 -33 -28 -33 -4 0 -6 -4 -3 -8 3 -5 -5 -19 -18 -33 -12 -13
-23 -27 -24 -32 -2 -8 -15 -26 -44 -58 -10 -10 -16 -19 -14 -19 9 0 -80 -95
-176 -190 -131 -128 -166 -159 -172 -152 -3 3 -6 0 -6 -6 0 -7 -4 -12 -9 -12
-5 0 -23 -13 -41 -30 -18 -16 -38 -30 -46 -30 -8 0 -14 -4 -14 -9 0 -9 -96
-71 -111 -71 -5 0 -9 -3 -9 -8 0 -4 -15 -13 -32 -21 -18 -8 -35 -17 -38 -20
-9 -11 -129 -68 -124 -59 3 5 -9 0 -27 -11 -18 -11 -36 -18 -41 -15 -4 3 -8 0
-8 -5 0 -6 -12 -11 -26 -11 -15 0 -23 -4 -19 -11 4 -6 1 -9 -6 -8 -20 3 -79
-12 -79 -20 0 -4 -12 -8 -27 -9 -15 -1 -29 -5 -32 -10 -3 -4 -15 -8 -26 -8
-21 -2 -70 -11 -70 -14 0 -3 -41 -11 -75 -14 -57 -5 -66 1 -62 40 4 31 12 39
35 35 4 0 7 3 7 9 0 5 6 7 14 4 8 -3 17 -1 20 4 3 6 15 8 26 5 11 -3 20 -1 20
5 0 6 11 9 25 7 15 -1 25 3 25 10 0 7 10 11 25 10 14 -2 27 1 31 6 3 5 14 9
25 9 10 0 19 4 19 9 0 6 9 8 20 6 11 -2 20 1 20 6 0 6 5 7 10 4 6 -3 10 -1 10
4 0 6 3 10 8 9 4 -1 23 4 42 11 19 8 38 13 43 12 4 0 7 3 7 9 0 6 3 9 8 8 4
-1 21 5 37 12 17 7 33 13 38 12 4 -1 7 2 7 8 0 5 9 10 20 10 11 0 20 4 20 9 0
5 15 15 33 22 46 19 127 70 127 81 0 5 4 7 8 4 5 -3 23 8 40 24 18 16 32 26
32 24 0 -6 72 54 128 105 17 16 32 28 32 26 0 -2 10 6 23 18 13 12 22 25 20
30 -2 4 0 7 5 7 5 0 21 11 36 25 15 14 25 25 22 25 -3 0 7 12 22 27 15 15 30
27 35 25 4 -1 7 3 7 8 0 11 10 24 41 58 26 28 109 140 109 147 0 4 6 13 13 20
25 29 33 40 35 50 1 6 9 18 17 28 9 10 12 23 9 30 -4 7 -4 9 0 5 8 -7 56 74
60 100 1 8 8 17 15 21 7 5 13 12 13 17 1 15 17 57 34 87 8 15 12 27 8 27 -5 0
-3 5 4 12 7 7 12 20 12 30 0 16 -3 17 -22 6 -13 -7 -26 -11 -30 -10 -5 1 -8
-5 -8 -14 0 -9 -5 -14 -12 -12 -6 2 -20 -4 -30 -14 -10 -10 -25 -18 -34 -18
-9 0 -12 -5 -8 -12 5 -8 2 -9 -9 -5 -10 3 -17 2 -17 -4 0 -5 -16 -17 -35 -25
-19 -8 -35 -19 -35 -24 0 -6 -6 -10 -13 -10 -7 0 -29 -11 -50 -25 -20 -14 -37
-23 -37 -20 0 4 -7 -1 -16 -9 -8 -9 -20 -14 -25 -11 -5 4 -9 -1 -9 -9 0 -10
-6 -13 -15 -10 -8 4 -15 1 -15 -6 0 -7 -7 -10 -16 -6 -8 3 -13 2 -10 -2 2 -4
-34 -28 -82 -52 -48 -25 -89 -48 -90 -52 -2 -5 -8 -6 -13 -2 -5 3 -9 0 -9 -7
0 -7 -3 -10 -6 -6 -3 3 -26 -6 -50 -19 -24 -14 -44 -22 -44 -18 0 4 -8 0 -18
-9 -10 -10 -22 -14 -25 -10 -4 3 -7 1 -7 -5 0 -7 -9 -12 -20 -12 -11 0 -20 -5
-20 -11 0 -6 -7 -9 -15 -5 -8 3 -15 1 -15 -4 0 -6 -9 -10 -20 -10 -11 0 -20
-5 -20 -11 0 -6 -6 -9 -14 -6 -8 3 -16 1 -18 -4 -2 -6 -12 -12 -23 -14 -11 -2
-22 -4 -25 -5 -3 -1 -9 -2 -13 -1 -4 1 -10 -5 -13 -13 -3 -8 -12 -12 -20 -9
-8 3 -14 0 -14 -7 0 -6 -4 -9 -8 -6 -5 3 -21 -2 -36 -9 -16 -8 -32 -12 -37 -9
-5 3 -9 -1 -9 -10 0 -8 -7 -13 -17 -11 -10 1 -24 -2 -30 -8 -7 -5 -13 -6 -13
-1 0 5 -4 4 -8 -1 -8 -11 -123 -51 -135 -47 -4 1 -10 -4 -13 -11 -8 -21 -60
-9 -60 14 0 10 4 19 9 19 5 0 7 6 4 14 -3 8 -3 17 1 21 4 4 7 10 8 13 2 24 28
99 37 111 10 12 9 13 -3 6 -12 -6 -13 -5 -2 6 6 7 12 21 12 31 0 10 4 18 9 18
6 0 8 9 6 20 -2 11 0 20 6 20 5 0 9 11 9 24 0 14 5 28 10 31 6 4 8 10 5 15 -3
5 -1 11 5 15 5 3 10 17 10 31 0 13 4 24 9 24 8 0 25 56 22 73 0 4 4 7 10 7 6
0 9 8 7 18 -3 10 1 24 9 31 8 7 12 20 9 28 -3 8 -1 11 4 8 6 -3 10 -3 11 2 2
24 9 45 23 74 9 17 13 35 10 40 -3 5 -1 9 4 9 8 0 20 24 26 52 0 3 4 10 9 14
4 4 7 16 7 26 0 10 5 18 10 18 6 0 10 8 10 19 0 10 7 24 15 31 8 7 15 19 15
26 0 20 42 114 52 114 4 0 5 6 2 14 -3 7 2 20 10 28 8 8 16 23 18 33 4 26 -22
31 -29 6 -3 -12 -10 -21 -15 -21 -5 0 -6 -5 -3 -10 3 -6 -1 -13 -9 -16 -9 -3
-16 -12 -16 -20 0 -8 -5 -14 -11 -14 -5 0 -7 -5 -4 -10 3 -6 -1 -17 -9 -26 -9
-8 -16 -22 -16 -30 0 -8 -4 -14 -8 -14 -5 0 -15 -12 -23 -27 -7 -16 -24 -45
-36 -65 -13 -20 -24 -43 -25 -50 -2 -7 -6 -15 -9 -18 -6 -5 -52 -91 -54 -100
0 -3 -6 -15 -13 -27 -7 -13 -9 -23 -5 -23 4 0 1 -5 -7 -10 -8 -5 -15 -13 -16
-17 0 -4 -11 -33 -24 -63 -14 -30 -23 -57 -21 -59 1 -2 -1 -7 -6 -10 -11 -7
-63 -131 -63 -148 0 -7 -5 -13 -10 -13 -6 0 -9 -3 -8 -7 1 -5 -4 -24 -11 -43
-8 -19 -14 -38 -15 -42 -1 -3 -4 -10 -9 -14 -4 -4 -7 -18 -7 -31 0 -15 -4 -22
-11 -17 -6 4 -9 -1 -7 -12 1 -11 -6 -41 -16 -69 -23 -65 -28 -79 -26 -84 1 -2
-4 -7 -11 -11 -13 -9 -39 11 -39 30 0 6 -4 8 -10 5 -5 -3 -10 1 -10 9 0 8 -8
20 -17 25 -10 6 -14 11 -10 11 13 0 -120 130 -133 130 -6 0 -8 5 -5 10 3 6 -1
10 -9 10 -8 0 -22 10 -30 22 -9 12 -18 19 -22 16 -3 -4 -19 7 -36 23 -17 16
-34 26 -39 23 -5 -3 -9 -1 -9 3 0 12 -56 44 -64 36 -3 -3 -6 -2 -6 3 0 5 -25
20 -55 34 -30 14 -55 29 -55 33 0 5 -5 5 -10 2 -6 -4 -17 -1 -25 5 -8 7 -15 9
-15 5 0 -4 -6 -3 -13 3 -7 6 -25 13 -41 16 -15 3 -33 10 -40 15 -7 6 -16 8
-19 5 -3 -4 -14 -3 -24 2 -10 4 -25 8 -33 10 -8 1 -33 4 -55 7 -22 4 -32 4
-23 1 10 -3 18 -9 18 -14 0 -5 10 -12 22 -15 13 -4 33 -17 46 -29 13 -11 24
-20 25 -18 4 8 57 -11 57 -20 0 -5 5 -6 10 -3 6 3 10 2 10 -3 0 -5 18 -17 40
-27 22 -10 40 -22 40 -27 0 -4 7 -8 15 -8 8 0 15 -3 15 -8 0 -4 20 -18 45 -32
25 -14 45 -31 45 -38 0 -7 5 -10 10 -7 6 3 10 1 10 -5 0 -6 5 -8 10 -5 6 3 10
2 10 -4 0 -5 13 -18 29 -27 17 -10 28 -21 25 -26 -3 -4 3 -8 12 -8 10 0 15 -3
12 -6 -3 -3 14 -25 38 -48 24 -24 44 -49 44 -55 0 -6 4 -11 8 -11 4 0 19 -18
32 -40 14 -22 29 -40 33 -40 5 0 6 -4 2 -9 -3 -5 -1 -12 5 -16 5 -3 10 -13 10
-21 0 -8 -4 -12 -10 -9 -6 3 -10 1 -10 -5 0 -6 -4 -8 -10 -5 -5 3 -10 2 -10
-2 0 -5 -8 -9 -17 -10 -29 -1 -95 -14 -119 -23 -13 -5 -32 -7 -43 -5 -11 2
-23 -1 -26 -6 -4 -5 -11 -7 -16 -4 -5 4 -9 2 -9 -4 0 -6 -7 -8 -15 -5 -8 3
-20 2 -26 -2 -7 -4 -31 -8 -54 -9 -22 -1 -51 -5 -63 -9 -12 -4 -41 -9 -64 -12
-24 -3 -61 -7 -83 -10 -22 -3 -52 -6 -67 -6 -16 0 -28 -4 -28 -9 0 -5 -5 -9
-11 -9 -5 0 -7 5 -4 10 3 6 2 10 -4 10 -5 0 -12 -4 -15 -8 -2 -4 -43 -8 -89
-7 -47 0 -83 -3 -81 -7 3 -4 -9 -6 -25 -4 -17 2 -32 1 -35 -1 -2 -3 -66 -5
-140 -6 -75 -1 -136 -5 -136 -10 0 -5 -7 -4 -15 3 -8 6 -20 8 -26 4 -19 -12
-80 -13 -73 -2 3 5 -3 4 -15 -4 -21 -13 -21 -13 4 -26 14 -7 25 -17 25 -22 0
-6 4 -9 9 -7 5 1 18 -4 28 -10 78 -53 96 -63 109 -63 8 0 13 -4 10 -8 -3 -5
15 -17 40 -27 24 -10 49 -24 55 -31 6 -8 15 -11 20 -8 5 3 9 0 9 -5 0 -6 9
-11 20 -11 11 0 20 -4 20 -10 0 -5 7 -6 17 -3 11 4 14 3 9 -5 -5 -8 1 -12 18
-12 14 0 28 -5 31 -11 4 -6 13 -8 21 -5 8 3 13 0 11 -6 -2 -9 11 -14 61 -20 6
-1 12 -5 12 -10 0 -5 5 -6 10 -3 6 3 10 2 10 -3 0 -6 8 -8 19 -5 10 3 22 0 25
-6 4 -6 18 -11 32 -11 13 0 24 -4 24 -8 0 -4 11 -9 25 -10 45 -3 55 -5 55 -11
0 -6 34 -10 105 -14 17 -1 32 -5 35 -9 3 -4 33 -8 65 -10 33 -1 66 -7 74 -12
11 -8 13 -8 7 2 -4 6 -2 12 3 12 6 0 11 -5 11 -11 0 -8 6 -7 17 2 11 10 14 10
9 1 -9 -16 6 -16 23 1 8 6 11 7 8 1 -4 -7 36 -11 129 -11 140 -1 163 -7 149
-40 -5 -10 -9 -22 -9 -28 -1 -5 -11 -11 -23 -13 -13 -2 -23 -8 -23 -13 0 -6
-10 -5 -22 2 -13 7 -25 11 -28 10 -3 -2 -13 -7 -24 -13 -10 -5 -16 -6 -13 -1
3 5 -22 10 -56 11 -34 1 -97 3 -139 4 -46 1 -78 6 -78 13 0 5 -5 3 -10 -5 -5
-8 -10 -10 -10 -4 0 6 -8 11 -17 11 -60 0 -94 4 -90 11 3 4 -11 7 -31 6 -21 0
-41 3 -47 7 -5 4 -13 8 -17 8 -5 1 -9 1 -10 2 -2 0 -16 3 -32 5 -16 3 -37 9
-47 15 -10 5 -29 9 -43 9 -14 0 -26 4 -26 9 0 5 -12 11 -27 14 -16 3 -41 11
-58 18 -16 7 -32 13 -35 14 -3 0 -15 6 -27 13 -13 7 -23 10 -23 7 0 -3 -20 6
-45 20 -25 13 -47 25 -50 25 -5 0 -41 18 -110 57 -22 12 -59 32 -82 44 -24 13
-43 27 -43 31 0 4 -7 8 -15 8 -8 0 -15 5 -15 10 0 6 -6 10 -13 10 -7 0 -25 11
-40 25 -15 14 -27 23 -27 19 0 -3 -16 9 -35 28 -51 49 -65 60 -65 51 -1 -4 -7
3 -15 17 -8 14 -14 22 -15 18 0 -9 -170 164 -170 174 0 4 -7 8 -15 8 -8 0 -15
6 -15 14 0 8 -7 17 -16 20 -9 4 -14 9 -11 12 3 3 -12 23 -33 44 -21 21 -35 41
-32 44 3 3 0 6 -6 6 -7 0 -12 7 -12 15 0 8 -7 15 -16 15 -8 0 -12 5 -9 10 3 6
-1 13 -9 16 -9 3 -14 10 -11 14 3 5 -1 12 -9 17 -8 4 -15 13 -15 18 0 16 -101
165 -112 165 -5 0 -9 7 -9 16 0 8 -5 12 -10 9 -6 -3 -10 -1 -10 5 0 6 -11 22
-25 36 -14 14 -25 29 -25 34 0 6 -7 10 -15 10 -8 0 -15 4 -15 9 0 4 -35 44
-78 89 -103 107 -122 129 -114 137 4 3 -2 3 -11 -1 -10 -4 -17 -2 -15 3 3 9
-20 37 -113 139 -10 12 -19 27 -19 33 0 7 -4 10 -8 7 -10 -6 -43 30 -35 38 4
3 -1 6 -10 6 -10 0 -17 6 -17 13 0 8 -3 7 -10 -3 -5 -8 -5 -19 0 -25 4 -5 9
-28 11 -50 1 -22 6 -44 10 -50 3 -5 9 -23 12 -40 11 -58 29 -130 36 -140 4 -5
7 -17 6 -25 0 -8 2 -17 5 -20 8 -7 40 -108 40 -126 0 -8 4 -14 10 -14 5 0 9
-3 8 -7 -1 -9 9 -40 23 -65 5 -10 9 -25 9 -33 0 -8 5 -15 10 -15 6 0 10 -5 10
-12 0 -18 63 -148 72 -148 4 0 8 -7 8 -15 0 -8 16 -39 35 -69 19 -29 31 -56
28 -60 -4 -3 -2 -6 3 -6 5 0 18 -15 29 -32 22 -38 31 -50 62 -84 12 -13 18
-24 14 -24 -5 0 6 -16 25 -37 18 -20 30 -41 27 -46 -4 -6 -1 -7 6 -3 8 5 14 0
18 -13 3 -11 14 -23 24 -26 11 -4 17 -11 14 -16 -4 -5 -1 -9 4 -9 6 0 11 -4
11 -10 0 -5 47 -56 104 -112 127 -126 163 -158 177 -158 5 0 7 -4 4 -10 -3 -5
-1 -10 4 -10 12 0 42 -23 79 -60 14 -14 22 -18 17 -10 -5 8 5 4 21 -10 16 -14
30 -28 32 -32 2 -5 9 -8 16 -8 7 0 21 -9 31 -20 9 -10 20 -19 24 -18 19 2 31
-3 26 -12 -3 -6 0 -10 7 -10 7 0 30 -11 49 -24 20 -14 69 -42 110 -63 41 -20
77 -41 80 -46 3 -5 9 -8 13 -7 11 2 76 -24 76 -30 0 -4 6 -7 13 -7 20 -2 147
-50 142 -54 -2 -3 8 -6 22 -7 15 -1 29 -6 32 -11 3 -4 16 -7 29 -6 12 1 22 -2
22 -7 0 -4 3 -7 8 -7 4 1 9 0 12 -1 5 -2 29 -7 53 -13 6 -1 17 -5 22 -8 6 -3
26 -6 45 -8 19 -2 40 -7 45 -11 6 -5 20 -9 30 -9 11 1 31 -2 45 -6 14 -4 36
-7 50 -8 14 -1 28 -6 32 -12 5 -6 8 -4 8 5 0 13 1 13 10 0 8 -12 10 -12 10 -1
0 9 4 10 13 4 19 -15 49 -24 42 -13 -4 6 2 7 17 2 13 -4 47 -8 75 -7 29 0 53
-2 53 -5 0 -8 262 -4 289 5 18 5 22 4 16 -6 -6 -11 -5 -12 6 -1 7 6 17 12 22
12 4 0 5 -6 2 -12 -4 -7 0 -5 8 5 8 10 18 14 21 9 3 -5 27 -6 58 -1 29 5 71
11 93 14 22 2 51 7 65 10 14 3 36 7 50 10 14 3 36 7 50 10 14 4 30 7 35 8 6 2
16 6 23 10 6 5 12 6 12 4 0 -3 28 3 62 13 34 11 66 16 71 13 6 -3 7 -1 3 5 -5
8 1 12 18 12 14 0 28 5 31 11 4 6 13 8 20 5 8 -3 15 0 17 5 3 9 22 15 51 18 5
1 5 5 2 11 -3 6 1 7 10 4 8 -4 22 -1 30 6 8 7 15 9 15 5 0 -5 8 -1 18 8 10 10
22 14 25 10 4 -3 7 0 7 7 0 7 3 11 6 7 7 -7 85 32 96 47 4 6 8 7 8 2 0 -4 11
-1 25 8 14 9 25 13 25 9 0 -5 4 -3 8 3 9 13 109 74 122 74 6 0 10 5 10 11 0 5
5 7 10 4 6 -3 10 -2 10 4 0 6 18 20 40 31 22 11 40 25 40 31 0 6 4 8 8 5 5 -3
14 4 22 14 8 10 17 17 21 14 4 -2 14 5 22 16 7 11 17 17 20 13 4 -3 7 1 7 11
0 9 4 15 9 12 5 -3 20 6 35 21 14 14 26 23 26 20 0 -3 26 21 59 53 32 33 61
56 65 53 3 -4 6 1 6 11 0 9 5 14 10 11 6 -3 10 1 10 9 0 8 9 18 21 21 11 4 18
9 15 12 -3 3 9 20 27 37 49 49 99 107 132 151 17 22 33 42 38 43 4 2 7 8 7 14
0 6 10 19 22 29 11 11 17 19 12 19 -5 0 -2 6 7 13 9 7 16 14 15 17 0 3 19 33
42 68 24 34 40 62 37 62 -4 0 0 7 7 15 23 26 33 40 36 55 2 8 8 17 13 18 5 2
9 10 9 18 0 8 12 33 26 55 14 23 20 38 12 34 -7 -3 -3 2 9 13 12 11 20 22 18
24 -3 2 11 41 30 86 19 45 31 82 27 82 -4 0 -1 4 5 8 7 4 14 17 16 27 1 11 6
26 10 33 5 6 6 12 3 12 -3 0 1 15 9 34 8 18 11 36 8 40 -4 3 -1 6 4 6 6 0 10
8 8 18 -1 9 1 22 5 27 7 9 20 60 22 93 1 6 4 12 7 12 3 0 7 10 7 23 3 32 12
102 14 102 3 0 10 41 11 77 2 24 6 35 13 31 6 -4 5 0 -1 9 -7 8 -11 17 -8 19
14 14 15 59 15 448 0 30 -6 61 -13 70 -10 12 -9 13 3 6 13 -7 13 -6 2 7 -9 12
-10 18 -2 23 7 4 8 11 2 18 -9 11 -17 53 -25 117 -1 14 -6 31 -11 39 -7 10 -6
12 4 6 10 -6 11 -4 4 6 -4 8 -10 19 -11 24 -1 6 -4 19 -7 30 -2 11 -5 22 -6
25 -1 3 -2 8 -1 12 0 4 -5 24 -13 45 -7 21 -12 46 -10 56 1 9 -2 15 -7 11 -5
-3 -9 6 -9 20 0 14 -5 26 -11 26 -5 0 -8 4 -5 8 7 11 -13 82 -22 82 -4 0 -8 8
-9 18 -2 27 -10 55 -26 85 -12 23 -15 25 -19 10z"/>
<path d="M1254 2702 c6 -11 0 -13 -25 -12 -19 1 -38 1 -44 0 -5 -1 -30 -3 -55
-4 -25 -2 -47 -4 -50 -5 -3 -2 -26 -5 -53 -7 -26 -2 -66 -8 -88 -13 -23 -5
-48 -7 -55 -4 -8 3 -14 1 -14 -4 0 -5 -10 -9 -22 -10 -46 -2 -78 -8 -78 -14 0
-3 -16 -5 -34 -4 -19 1 -33 -2 -30 -7 3 -4 -10 -8 -28 -8 -19 0 -40 -6 -47
-12 -11 -11 -12 -10 -6 0 6 11 3 12 -14 3 -12 -7 -25 -9 -30 -6 -5 3 -11 0
-13 -5 -2 -6 -19 -13 -38 -15 -39 -5 -56 -8 -85 -18 -11 -3 -31 -8 -45 -11
-14 -3 -40 -9 -58 -15 -18 -5 -35 -10 -37 -10 -3 -1 -6 -1 -7 -2 -2 0 -16 -3
-33 -5 -16 -3 -32 -10 -36 -15 -3 -5 -13 -7 -22 -3 -10 4 -17 1 -17 -6 0 -7
-7 -10 -15 -7 -8 4 -17 2 -19 -2 -3 -5 -19 -11 -36 -14 -32 -7 -38 -20 -17
-41 6 -7 23 -28 37 -46 14 -18 34 -42 44 -52 11 -10 16 -18 12 -18 -4 0 -1 -6
6 -14 34 -35 68 -77 68 -84 0 -4 9 -13 20 -20 11 -7 20 -17 20 -22 0 -6 15
-26 33 -45 61 -64 122 -138 120 -147 -2 -4 1 -7 6 -5 10 2 51 -41 51 -55 0 -4
7 -8 16 -8 8 0 13 -3 11 -7 -2 -5 61 -72 140 -150 78 -78 143 -140 143 -136 0
3 12 -6 26 -21 15 -14 31 -26 36 -26 5 0 6 -4 3 -10 -3 -5 -1 -10 5 -10 6 0
21 -10 33 -22 13 -13 27 -25 32 -26 6 -2 9 -8 8 -13 -2 -5 6 -9 17 -9 11 0 20
-7 20 -16 0 -8 4 -13 8 -10 5 3 20 -6 35 -20 14 -13 30 -24 34 -24 5 0 15 -9
22 -19 8 -11 20 -17 26 -15 7 3 15 -2 18 -10 4 -9 13 -16 22 -16 8 0 15 -4 15
-10 0 -5 9 -10 21 -10 11 0 18 -4 15 -9 -3 -5 12 -16 33 -25 22 -8 42 -20 46
-26 3 -6 10 -8 15 -5 4 3 13 -2 20 -10 7 -8 16 -12 21 -9 5 3 9 0 9 -5 0 -6 9
-11 19 -11 11 0 23 -5 26 -10 3 -6 15 -10 26 -10 10 0 19 -4 19 -8 0 -5 6 -9
13 -10 15 -1 52 -10 52 -12 0 -1 13 -4 30 -6 16 -3 32 -10 36 -16 3 -5 9 -9
13 -9 30 4 96 -1 92 -7 -5 -8 116 -7 139 2 8 3 15 0 15 -7 0 -8 4 -7 10 3 5 8
19 15 32 15 13 0 28 3 33 6 6 4 20 5 33 4 12 -1 22 4 22 10 0 6 6 12 13 13 31
3 49 10 58 23 5 8 9 11 9 6 0 -11 97 59 135 98 18 19 35 31 39 28 6 -6 10 12
7 30 0 4 5 7 12 7 7 0 27 23 46 51 27 41 31 53 20 60 -14 9 -28 12 -41 10 -5
0 -8 6 -8 15 0 8 -4 13 -8 10 -5 -3 -21 2 -36 10 -16 7 -35 14 -42 14 -8 0
-14 5 -14 10 0 6 -7 10 -15 10 -8 0 -15 4 -15 9 0 5 -6 8 -12 8 -16 -2 -112
44 -116 55 -2 4 -9 8 -17 8 -7 0 -42 15 -78 34 -37 18 -69 31 -72 28 -3 -3 -5
0 -5 6 0 7 -9 12 -21 12 -11 0 -17 5 -14 10 3 6 -1 10 -10 10 -8 0 -41 14 -72
30 -31 17 -62 30 -70 30 -8 0 -12 4 -9 9 3 5 -7 11 -23 14 -16 3 -37 14 -47
24 -9 10 -18 16 -19 13 -1 -7 -139 63 -143 72 -2 5 -12 8 -22 8 -10 0 -20 5
-22 10 -2 6 -13 12 -26 15 -12 2 -29 11 -38 19 -14 15 -29 20 -46 17 -5 0 -8
3 -8 8 0 5 -9 12 -19 16 -11 3 -18 12 -15 19 6 16 54 28 54 14 0 -5 6 -8 13
-6 20 4 91 -13 106 -25 12 -10 13 -9 6 3 -6 12 -5 13 6 3 7 -7 26 -13 41 -13
15 0 28 -4 28 -9 0 -5 13 -8 30 -7 16 1 31 -1 32 -5 3 -7 34 -16 84 -24 12 -2
30 -7 40 -13 11 -5 25 -7 32 -5 6 3 12 0 12 -6 0 -6 16 -11 35 -11 19 0 35 -4
35 -10 0 -5 8 -9 18 -8 23 2 82 -13 82 -21 0 -4 12 -6 28 -5 15 0 29 -3 32 -7
3 -5 21 -9 39 -11 18 -1 35 -6 37 -10 3 -4 16 -8 30 -8 13 0 24 -5 24 -11 0
-5 4 -8 8 -5 5 3 26 0 48 -6 21 -6 42 -11 47 -10 4 1 7 -2 7 -6 0 -4 12 -8 28
-7 15 0 30 -4 33 -8 4 -5 19 -9 33 -9 15 0 29 -4 32 -9 3 -5 15 -9 28 -9 12 0
26 -3 30 -7 3 -4 14 -7 24 -8 9 -1 28 -5 41 -9 16 -6 21 -5 17 3 -4 6 -4 17 1
24 12 19 11 177 -1 177 -6 0 -4 5 4 10 8 5 10 10 4 10 -6 0 -11 18 -11 44 0
24 -4 49 -8 57 -5 7 -10 25 -12 40 -1 14 -12 47 -23 73 -11 26 -20 54 -20 62
0 8 -4 14 -10 14 -5 0 -10 7 -10 15 0 8 -5 15 -12 15 -6 0 -8 3 -5 6 8 8 -43
75 -103 134 -49 48 -108 91 -152 111 -16 7 -28 17 -28 22 0 6 -3 7 -7 4 -3 -4
-15 1 -26 10 -11 10 -17 13 -14 6 5 -8 1 -8 -18 0 -14 7 -25 15 -25 18 0 3
-11 5 -25 4 -14 -2 -23 0 -20 5 4 6 -12 12 -70 25 -5 1 -12 3 -15 4 -10 5 -55
12 -87 13 -18 1 -33 7 -33 13 0 5 -5 3 -10 -5 -5 -8 -10 -10 -10 -4 0 11 -39
13 -257 14 -48 1 -73 5 -73 12 0 7 -7 3 -15 -8 -8 -10 -15 -14 -15 -9 0 6 -12
10 -27 9 -16 -1 -34 4 -42 10 -12 9 -13 8 -7 -2z"/>
<path d="M3466 2445 c-9 -14 -13 -25 -9 -25 5 0 0 -5 -10 -11 -9 -6 -15 -14
-12 -20 9 -14 25 -11 25 6 0 8 5 15 11 15 5 0 7 5 4 10 -4 6 -1 18 6 26 6 8
10 17 7 20 -3 2 -13 -7 -22 -21z"/>
</g>
</svg>
